<svg xmlns="http://www.w3.org/2000/svg" width="75" height="74" viewBox="0 0 75 74" fill="none">
  <path fill-rule="evenodd" clip-rule="evenodd" d="M36.9999 1.00004C56.882 1.00004 73.0002 17.1175 73.0002 36.9999C73.0002 56.8823 56.882 72.9997 36.9999 72.9997C17.1177 72.9997 1.0002 56.8823 1.0002 36.9999C1.0002 17.1175 17.1177 1.00004 36.9999 1.00004Z" fill="#D69991"/>
  <path fill-rule="evenodd" clip-rule="evenodd" d="M51.4002 27.4001C51.4002 24.8783 49.1227 22.5998 46.5999 22.5998H27.3998C24.8771 22.5998 22.6001 24.8783 22.6001 27.4001V46.5996C22.6001 49.1222 24.8771 51.3992 27.4004 51.3992H36.9999V40.52H33.4798V35.7197H36.9999V33.8502C36.9999 30.6243 39.4218 27.7203 42.4003 27.7203H46.2803V32.5198H42.4003C41.9755 32.5198 41.48 33.0355 41.48 33.8078V35.7197H46.2803V40.52H41.48V51.3992H46.5999C49.1227 51.3992 51.4002 49.1222 51.4002 46.5996V27.4001Z" fill="white"/>
</svg>