<svg xmlns="http://www.w3.org/2000/svg" width="75" height="74" viewBox="0 0 75 74" fill="none">
  <path fill-rule="evenodd" clip-rule="evenodd" d="M36.9998 1.00004C56.882 1.00004 73.0001 17.1175 73.0001 36.9999C73.0001 56.8823 56.882 72.9997 36.9998 72.9997C17.1177 72.9997 1.0002 56.8823 1.0002 36.9999C1.0002 17.1175 17.1177 1.00004 36.9998 1.00004Z" fill="#D69991"/>
  <path fill-rule="evenodd" clip-rule="evenodd" d="M31.5912 22.5762H42.4085C47.3866 22.5762 51.4229 26.6136 51.4229 31.5913V42.4084C51.4229 47.3869 47.3866 51.4227 42.4085 51.4227H31.5912C26.6137 51.4227 22.5768 47.3869 22.5768 42.4084V31.5913C22.5768 26.6136 26.6137 22.5762 31.5912 22.5762ZM42.4085 48.7188C45.8882 48.7188 48.7186 45.8878 48.7186 42.4084V31.5913C48.7186 28.112 45.8882 25.2817 42.4085 25.2817H31.5912C28.1115 25.2817 25.2811 28.112 25.2811 31.5913V42.4084C25.2811 45.8878 28.1115 48.7188 31.5912 48.7188H42.4085ZM29.7883 36.9999C29.7883 33.0174 33.0171 29.7884 36.9998 29.7884C40.9826 29.7884 44.2114 33.0174 44.2114 36.9999C44.2114 40.9823 40.9826 44.2113 36.9998 44.2113C33.0171 44.2113 29.7883 40.9823 29.7883 36.9999ZM32.4926 36.9999C32.4926 39.484 34.5155 41.5074 36.9998 41.5074C39.4842 41.5074 41.5071 39.484 41.5071 36.9999C41.5071 34.5134 39.4842 32.4923 36.9998 32.4923C34.5155 32.4923 32.4926 34.5134 32.4926 36.9999ZM45.7136 29.2469C45.7136 28.7171 45.283 28.2862 44.7523 28.2862C44.2215 28.2862 43.7916 28.7171 43.7916 29.2469C43.7916 29.7782 44.2215 30.2092 44.7523 30.2092C45.283 30.2092 45.7136 29.7782 45.7136 29.2469Z" fill="white"/>
</svg>