<svg xmlns="http://www.w3.org/2000/svg" width="75" height="74" viewBox="0 0 75 74" fill="none">
  <path fill-rule="evenodd" clip-rule="evenodd" d="M36.9998 1.00004C56.882 1.00004 73.0001 17.1175 73.0001 36.9999C73.0001 56.8823 56.882 72.9997 36.9998 72.9997C17.1177 72.9997 1.0002 56.8823 1.0002 36.9999C1.0002 17.1175 17.1177 1.00004 36.9998 1.00004Z" fill="#D69991"/>
  <path fill-rule="evenodd" clip-rule="evenodd" d="M50.4055 26.6325C49.2632 27.309 47.9981 27.8004 46.6516 28.0664C45.5743 26.9166 44.0393 26.2 42.3398 26.2C39.0763 26.2 36.4306 28.8466 36.4306 32.1077C36.4306 32.57 36.4836 33.0213 36.5838 33.4538C31.6738 33.2081 27.3204 30.8543 24.4061 27.28C23.8974 28.1512 23.6075 29.166 23.6075 30.2499C23.6075 32.3 24.6514 34.1092 26.2349 35.1672C25.2666 35.135 24.3564 34.8689 23.5589 34.4255V34.4993C23.5589 37.3617 25.5963 39.7493 28.2975 40.294C27.8026 40.4274 27.2807 40.502 26.7411 40.502C26.3597 40.502 25.9909 40.4627 25.6284 40.3944C26.3811 42.7412 28.5622 44.4499 31.1468 44.4985C29.1258 46.0824 26.5765 47.0266 23.8098 47.0266C23.3326 47.0266 22.8624 46.9992 22.3996 46.9458C25.0151 48.6207 28.1191 49.5995 31.4569 49.5995C42.324 49.5995 48.2666 40.5962 48.2666 32.789L48.2477 32.023C49.4057 31.1934 50.4093 30.1526 51.2004 28.969C50.1401 29.4376 49.0035 29.757 47.8077 29.8991C49.0281 29.1684 49.963 28.0091 50.4055 26.6325Z" fill="white"/>
</svg>